<svg id="图层_1" data-name="图层 1" xmlns="http://www.w3.org/2000/svg" viewBox="0 0 24 24"><title>chakxq</title><path class="cls-1" d="M14.14,20.57H5.36a1.93,1.93,0,0,1-1.93-1.94h0V5.37A1.93,1.93,0,0,1,5.36,3.43H18.63a1.93,1.93,0,0,1,1.94,1.94l0,8.77h0a.7.7,0,0,0,.72.71.72.72,0,0,0,.71-.7l0-8.78h0A3.37,3.37,0,0,0,18.63,2H5.36A3.36,3.36,0,0,0,2,5.36H2V18.63A3.36,3.36,0,0,0,5.36,22h8.78a.72.72,0,0,0,0-1.43Zm7.65.21-2.72-2.72a4.3,4.3,0,1,0-1,1l2.72,2.72a.71.71,0,0,0,1-1Zm-6.22-2.35a2.86,2.86,0,1,1,2.86-2.86,2.87,2.87,0,0,1-2.86,2.86Zm2.15-10a.72.72,0,0,0,0-1.43H6.29a.72.72,0,1,0,0,1.43Zm-7.15,4.29a.72.72,0,1,0,0-1.43H6.29a.72.72,0,1,0,0,1.43ZM6.29,15.57a.72.72,0,1,0,0,1.43H9.14a.72.72,0,0,0,0-1.43H6.29Z"/></svg>