<svg id="图层_1" data-name="图层 1" xmlns="http://www.w3.org/2000/svg" viewBox="0 0 24 24"><title>rwrz</title><path class="cls-1" d="M17.49,6V6a.76.76,0,0,1-.75.79H11.31A.76.76,0,0,1,10.57,6V6a.76.76,0,0,1,.74-.79h5.43A.76.76,0,0,1,17.49,6ZM8.73,5.2H7.26A.76.76,0,0,0,6.51,6V6a.76.76,0,0,0,.75.79H8.73A.77.77,0,0,0,9.48,6V6A.77.77,0,0,0,8.73,5.2Zm8,4H11.31a.76.76,0,0,0-.74.79v0a.76.76,0,0,0,.74.79h5.43a.76.76,0,0,0,.75-.79v0A.76.76,0,0,0,16.74,9.2Zm-8,0H7.26a.76.76,0,0,0-.75.79v0a.76.76,0,0,0,.75.79H8.73A.77.77,0,0,0,9.48,10v0A.77.77,0,0,0,8.73,9.2Zm8,4H11.31a.76.76,0,0,0-.74.79v0a.76.76,0,0,0,.74.79h5.43a.76.76,0,0,0,.75-.79v0A.76.76,0,0,0,16.74,13.2Zm-8,0H7.26a.76.76,0,0,0-.75.79v0a.76.76,0,0,0,.75.79H8.73A.77.77,0,0,0,9.48,14v0A.77.77,0,0,0,8.73,13.2Zm8,4H11.31a.76.76,0,0,0-.74.79v0a.76.76,0,0,0,.74.79h5.43a.76.76,0,0,0,.75-.79v0A.76.76,0,0,0,16.74,17.2Zm-8,0H7.26a.76.76,0,0,0-.75.79v0a.76.76,0,0,0,.75.79H8.73A.77.77,0,0,0,9.48,18v0A.77.77,0,0,0,8.73,17.2ZM21.5,3.77V20.23A2.86,2.86,0,0,1,18.58,23H5.42A2.86,2.86,0,0,1,2.5,20.23V3.77A2.86,2.86,0,0,1,5.42,1H18.58A2.86,2.86,0,0,1,21.5,3.77Zm-1.37-.11A1.4,1.4,0,0,0,18.7,2.3H5.3A1.4,1.4,0,0,0,3.87,3.66V20.34A1.4,1.4,0,0,0,5.3,21.7H18.7a1.4,1.4,0,0,0,1.43-1.36Z"/></svg>
